<svg data-v-423bf9ae="" xmlns="http://www.w3.org/2000/svg" viewBox="0 0 681 91" class="iconLeft"><!----><!----><!----><g data-v-423bf9ae="" id="19258364-51d5-4996-b2c0-cc0f48b1a4e1" fill="#FFFFFF" transform="matrix(4.4843052140043875,0,0,4.4843052140043875,78.15139185926296,-16.479822039942306)"><path d="M2.47 17.60L0.84 17.60L0.84 7.24L6.77 7.24L6.77 8.61L2.47 8.61L2.47 11.48L5.46 11.48L5.46 12.86L2.47 12.86L2.47 17.60ZM8.22 15.74L8.22 15.74L8.22 15.74Q8.22 16.14 8.42 16.32L8.42 16.32L8.42 16.32Q8.62 16.50 8.91 16.50L8.91 16.50L8.91 16.50Q9.21 16.50 9.35 16.47L9.35 16.47L9.35 16.47Q9.50 16.43 9.65 16.37L9.65 16.37L9.90 16.24L9.90 16.24Q10.01 16.17 10.14 16.06L10.14 16.06L10.34 15.91L10.34 15.91Q10.40 15.86 10.52 15.75L10.52 15.75L10.64 15.63L10.64 13.95L10.64 13.95Q9.11 14.30 8.64 14.71L8.64 14.71L8.64 14.71Q8.22 15.08 8.22 15.74ZM12.31 17.60L10.85 17.60L10.85 17.60Q10.64 17.47 10.64 16.96L10.64 16.96L10.51 17.11L10.51 17.11Q9.93 17.74 8.83 17.74L8.83 17.74L8.83 17.74Q7.51 17.74 7.01 16.80L7.01 16.80L7.01 16.80Q6.76 16.34 6.76 15.73L6.76 15.73L6.76 15.73Q6.76 15.12 6.98 14.65L6.98 14.65L6.98 14.65Q7.19 14.17 7.68 13.81L7.68 13.81L7.68 13.81Q8.56 13.15 10.64 12.74L10.64 12.74L10.64 12.74Q10.64 12.25 10.61 12.14L10.61 12.14L10.61 12.14Q10.58 12.03 10.54 11.94L10.54 11.94L10.54 11.94Q10.51 11.84 10.45 11.79L10.45 11.79L10.45 11.79Q10.40 11.74 10.32 11.68L10.32 11.68L10.32 11.68Q10.23 11.61 10.12 11.59L10.12 11.59L10.12 11.59Q9.86 11.52 9.53 11.52L9.53 11.52L9.53 11.52Q9.21 11.52 8.92 11.62L8.92 11.62L8.92 11.62Q8.64 11.72 8.47 11.84L8.47 11.84L8.47 11.84Q8.31 11.96 8.17 12.13L8.17 12.13L8.17 12.13Q7.99 12.35 7.92 12.51L7.92 12.51L6.96 11.92L6.96 11.92Q7.26 11.30 7.48 11.09L7.48 11.09L7.48 11.09Q7.70 10.88 7.91 10.73L7.91 10.73L7.91 10.73Q8.12 10.58 8.36 10.49L8.36 10.49L8.36 10.49Q8.93 10.28 9.53 10.28L9.53 10.28L9.53 10.28Q10.12 10.28 10.48 10.35L10.48 10.35L10.48 10.35Q10.83 10.41 11.15 10.58L11.15 10.58L11.15 10.58Q11.46 10.75 11.67 11.03L11.67 11.03L11.67 11.03Q12.11 11.63 12.11 12.80L12.11 12.80L12.11 16.58L12.11 16.58Q12.11 16.77 12.18 17.12L12.18 17.12L12.18 17.12Q12.25 17.47 12.31 17.60L12.31 17.60ZM16.26 11.50L16.26 11.50L16.26 11.50Q15.46 11.50 14.79 12.20L14.79 12.20L14.79 15.65L14.79 15.65Q14.79 15.65 14.88 15.77L14.88 15.77L14.88 15.77Q14.97 15.89 15.07 16.00L15.07 16.00L15.07 16.00Q15.18 16.10 15.33 16.21L15.33 16.21L15.33 16.21Q15.67 16.48 16.13 16.48L16.13 16.48L16.13 16.48Q16.58 16.48 16.87 16.35L16.87 16.35L16.87 16.35Q17.16 16.23 17.33 16.02L17.33 16.02L17.33 16.02Q17.50 15.82 17.60 15.50L17.60 15.50L17.60 15.50Q17.78 14.96 17.78 14.21L17.78 14.21L17.78 14.21Q17.78 13.45 17.69 12.97L17.69 12.97L17.69 12.97Q17.60 12.49 17.46 12.21L17.46 12.21L17.46 12.21Q17.32 11.94 17.11 11.77L17.11 11.77L17.11 11.77Q16.77 11.50 16.26 11.50ZM14.79 17.06L14.79 17.06L14.79 17.06Q14.73 17.60 14.68 17.60L14.68 17.60L13.13 17.60L13.13 17.60Q13.32 17.16 13.32 16.62L13.32 16.62L13.32 7.24L14.79 7.24L14.79 10.86L14.79 10.86Q14.91 10.68 15.30 10.47L15.30 10.47L15.30 10.47Q15.69 10.26 16.22 10.26L16.22 10.26L16.22 10.26Q16.75 10.26 17.20 10.38L17.20 10.38L17.20 10.38Q17.64 10.50 17.95 10.70L17.95 10.70L17.95 10.70Q18.27 10.90 18.50 11.19L18.50 11.19L18.50 11.19Q18.74 11.49 18.87 11.81L18.87 11.81L18.87 11.81Q19.01 12.13 19.10 12.54L19.10 12.54L19.10 12.54Q19.24 13.23 19.24 13.94L19.24 13.94L19.24 13.94Q19.24 14.65 19.14 15.15L19.14 15.15L19.14 15.15Q19.04 15.65 18.81 16.12L18.81 16.12L18.81 16.12Q18.58 16.59 18.25 16.95L18.25 16.95L18.25 16.95Q17.51 17.72 16.30 17.72L16.30 17.72L16.30 17.72Q15.31 17.72 14.79 17.06ZM21.78 17.60L20.32 17.60L20.32 10.38L21.78 10.38L21.78 11.38L21.78 11.38Q21.81 11.34 21.90 11.20L21.90 11.20L22.07 10.95L22.07 10.95Q22.57 10.26 23.73 10.26L23.73 10.26L23.73 10.26Q23.86 10.26 23.98 10.28L23.98 10.28L23.98 11.50L23.98 11.50Q22.74 11.53 22.19 12.20L22.19 12.20L22.19 12.20Q21.94 12.50 21.78 12.97L21.78 12.97L21.78 17.60ZM26.20 17.60L24.74 17.60L24.74 10.38L26.20 10.38L26.20 17.60ZM26.30 9.75L24.64 9.75L24.64 8.09L26.30 8.09L26.30 9.75ZM27.38 14.04L27.38 14.04L27.38 14.04Q27.38 11.89 28.32 10.99L28.32 10.99L28.32 10.99Q29.06 10.26 30.39 10.26L30.39 10.26L30.39 10.26Q31.72 10.26 32.47 11.38L32.47 11.38L32.47 11.38Q32.72 11.74 32.81 12.06L32.81 12.06L31.58 12.61L31.58 12.61Q31.52 12.04 31.12 11.72L31.12 11.72L31.12 11.72Q30.84 11.50 30.44 11.50L30.44 11.50L30.44 11.50Q28.85 11.50 28.85 13.98L28.85 13.98L28.85 13.98Q28.85 15.20 29.26 15.84L29.26 15.84L29.26 15.84Q29.68 16.48 30.48 16.48L30.48 16.48L30.48 16.48Q31.04 16.48 31.39 16.07L31.39 16.07L31.39 16.07Q31.69 15.72 31.83 15.31L31.83 15.31L32.95 15.80L32.95 15.80Q32.79 16.41 32.28 16.96L32.28 16.96L32.28 16.96Q31.56 17.72 30.44 17.72L30.44 17.72L30.44 17.72Q27.38 17.72 27.38 14.04ZM40.46 9.37L40.46 9.37L40.46 9.37Q40.46 10.36 40.66 10.84L40.66 10.84L40.66 10.84Q42.06 10.12 42.06 9.27L42.06 9.27L42.06 9.27Q42.06 8.90 41.85 8.59L41.85 8.59L41.85 8.59Q41.64 8.28 41.27 8.28L41.27 8.28L41.27 8.28Q40.90 8.28 40.68 8.59L40.68 8.59L40.68 8.59Q40.46 8.89 40.46 9.37ZM39.40 13.40L39.40 13.40L39.40 13.40Q39.03 13.84 39.03 14.54L39.03 14.54L39.03 14.54Q39.03 15.24 39.48 15.81L39.48 15.81L39.48 15.81Q39.94 16.39 40.65 16.39L40.65 16.39L40.65 16.39Q41.36 16.39 41.75 16.25L41.75 16.25L41.75 16.25Q42.14 16.11 42.55 15.77L42.55 15.77L42.55 15.77Q42.30 15.50 41.94 15.03L41.94 15.03L40.19 12.67L40.19 12.67Q39.57 13.21 39.40 13.40ZM37.56 14.79L37.56 14.79L37.56 14.79Q37.56 12.93 39.57 11.57L39.57 11.57L39.57 11.57Q39.35 11.14 39.17 10.43L39.17 10.43L39.17 10.43Q39.00 9.71 39.00 9.20L39.00 9.20L39.00 9.20Q39.00 8.69 39.29 8.18L39.29 8.18L39.29 8.18Q39.57 7.68 40.08 7.35L40.08 7.35L40.08 7.35Q40.58 7.02 41.19 7.02L41.19 7.02L41.19 7.02Q41.79 7.02 42.31 7.34L42.31 7.34L42.31 7.34Q42.83 7.66 43.10 8.15L43.10 8.15L43.10 8.15Q43.37 8.64 43.37 9.12L43.37 9.12L43.37 9.12Q43.37 9.60 43.25 9.97L43.25 9.97L43.25 9.97Q43.13 10.34 42.95 10.60L42.95 10.60L42.95 10.60Q42.77 10.86 42.45 11.13L42.45 11.13L42.45 11.13Q42.14 11.40 41.88 11.57L41.88 11.57L41.21 11.98L41.21 11.98Q41.64 12.67 42.40 13.61L42.40 13.61L42.40 13.61Q43.16 14.55 43.45 14.81L43.45 14.81L43.45 14.81Q43.91 13.88 43.87 12.57L43.87 12.57L45.33 12.57L45.33 12.57Q45.33 14.36 44.29 15.75L44.29 15.75L44.29 15.75Q44.73 16.04 45.64 16.01L45.64 16.01L45.64 16.01Q45.86 16.00 45.96 16.00L45.96 16.00L45.96 17.60L45.96 17.60Q44.88 17.60 44.65 17.52L44.65 17.52L44.65 17.52Q44.43 17.45 44.23 17.37L44.23 17.37L44.23 17.37Q43.88 17.23 43.49 16.84L43.49 16.84L43.49 16.84Q42.96 17.36 42.28 17.54L42.28 17.54L42.28 17.54Q41.61 17.72 40.76 17.72L40.76 17.72L40.76 17.72Q39.91 17.72 39.17 17.32L39.17 17.32L39.17 17.32Q38.43 16.93 38.00 16.25L38.00 16.25L38.00 16.25Q37.56 15.57 37.56 14.79ZM50.29 14.94L50.29 14.94L51.60 14.51L51.60 14.51Q51.60 14.51 51.63 14.62L51.63 14.62L51.63 14.62Q51.65 14.72 51.70 14.89L51.70 14.89L51.70 14.89Q51.75 15.05 51.84 15.25L51.84 15.25L51.84 15.25Q51.93 15.46 52.11 15.66L52.11 15.66L52.11 15.66Q52.29 15.86 52.53 16.02L52.53 16.02L52.53 16.02Q53.06 16.40 53.85 16.40L53.85 16.40L53.85 16.40Q54.65 16.40 55.02 16.01L55.02 16.01L55.02 16.01Q55.39 15.62 55.39 15.08L55.39 15.08L55.39 15.08Q55.39 14.55 55.28 14.22L55.28 14.22L55.28 14.22Q55.17 13.88 54.90 13.64L54.90 13.64L54.90 13.64Q54.44 13.23 53.31 12.90L53.31 12.90L53.31 12.90Q51.32 12.32 50.76 11.10L50.76 11.10L50.76 11.10Q50.46 10.47 50.46 9.60L50.46 9.60L50.46 9.60Q50.46 8.88 50.98 8.19L50.98 8.19L50.98 8.19Q51.87 7.05 53.52 7.05L53.52 7.05L53.52 7.05Q54.82 7.05 55.66 7.83L55.66 7.83L55.66 7.83Q56.25 8.39 56.55 9.23L56.55 9.23L56.68 9.59L56.68 9.59Q56.74 9.75 56.76 9.80L56.76 9.80L55.43 10.27L55.43 10.27Q54.97 8.84 54.02 8.50L54.02 8.50L54.02 8.50Q53.78 8.42 53.52 8.42L53.52 8.42L53.52 8.42Q52.10 8.42 52.10 9.88L52.10 9.88L52.10 9.88Q52.10 10.55 52.49 10.91L52.49 10.91L52.49 10.91Q52.82 11.22 53.35 11.40L53.35 11.40L53.68 11.50L53.68 11.50Q53.96 11.60 53.99 11.61L53.99 11.61L54.29 11.71L54.29 11.71Q55.46 12.12 55.87 12.43L55.87 12.43L55.87 12.43Q56.47 12.90 56.66 13.29L56.66 13.29L56.66 13.29Q57.03 14.09 57.03 14.98L57.03 14.98L57.03 14.98Q57.03 15.67 56.63 16.39L56.63 16.39L56.63 16.39Q56.10 17.36 54.94 17.66L54.94 17.66L54.94 17.66Q54.50 17.77 53.97 17.77L53.97 17.77L53.97 17.77Q53.44 17.77 52.98 17.68L52.98 17.68L52.98 17.68Q52.52 17.58 52.19 17.42L52.19 17.42L52.19 17.42Q51.85 17.25 51.57 17.04L51.57 17.04L51.57 17.04Q51.29 16.83 51.10 16.59L51.10 16.59L51.10 16.59Q50.91 16.36 50.76 16.12L50.76 16.12L50.76 16.12Q50.62 15.89 50.53 15.67L50.53 15.67L50.53 15.67Q50.45 15.46 50.39 15.30L50.39 15.30L50.39 15.30Q50.34 15.13 50.32 15.04L50.32 15.04L50.32 15.04Q50.29 14.94 50.29 14.94ZM59.18 15.74L59.18 15.74L59.18 15.74Q59.18 16.14 59.38 16.32L59.38 16.32L59.38 16.32Q59.58 16.50 59.87 16.50L59.87 16.50L59.87 16.50Q60.16 16.50 60.31 16.47L60.31 16.47L60.31 16.47Q60.46 16.43 60.60 16.37L60.60 16.37L60.85 16.24L60.85 16.24Q60.96 16.17 61.10 16.06L61.10 16.06L61.30 15.91L61.30 15.91Q61.35 15.86 61.48 15.75L61.48 15.75L61.60 15.63L61.60 13.95L61.60 13.95Q60.07 14.30 59.60 14.71L59.60 14.71L59.60 14.71Q59.18 15.08 59.18 15.74ZM63.27 17.60L61.80 17.60L61.80 17.60Q61.60 17.47 61.60 16.96L61.60 16.96L61.47 17.11L61.47 17.11Q60.88 17.74 59.79 17.74L59.79 17.74L59.79 17.74Q58.46 17.74 57.97 16.80L57.97 16.80L57.97 16.80Q57.72 16.34 57.72 15.73L57.72 15.73L57.72 15.73Q57.72 15.12 57.93 14.65L57.93 14.65L57.93 14.65Q58.15 14.17 58.63 13.81L58.63 13.81L58.63 13.81Q59.51 13.15 61.60 12.74L61.60 12.74L61.60 12.74Q61.60 12.25 61.57 12.14L61.57 12.14L61.57 12.14Q61.54 12.03 61.50 11.94L61.50 11.94L61.50 11.94Q61.46 11.84 61.41 11.79L61.41 11.79L61.41 11.79Q61.35 11.74 61.27 11.68L61.27 11.68L61.27 11.68Q61.19 11.61 61.08 11.59L61.08 11.59L61.08 11.59Q60.81 11.52 60.49 11.52L60.49 11.52L60.49 11.52Q60.16 11.52 59.88 11.62L59.88 11.62L59.88 11.62Q59.60 11.72 59.43 11.84L59.43 11.84L59.43 11.84Q59.26 11.96 59.12 12.13L59.12 12.13L59.12 12.13Q58.95 12.35 58.87 12.51L58.87 12.51L57.91 11.92L57.91 11.92Q58.21 11.30 58.43 11.09L58.43 11.09L58.43 11.09Q58.65 10.88 58.86 10.73L58.86 10.73L58.86 10.73Q59.08 10.58 59.32 10.49L59.32 10.49L59.32 10.49Q59.89 10.28 60.48 10.28L60.48 10.28L60.48 10.28Q61.08 10.28 61.43 10.35L61.43 10.35L61.43 10.35Q61.78 10.41 62.10 10.58L62.10 10.58L62.10 10.58Q62.42 10.75 62.62 11.03L62.62 11.03L62.62 11.03Q63.06 11.63 63.06 12.80L63.06 12.80L63.06 16.58L63.06 16.58Q63.06 16.77 63.13 17.12L63.13 17.12L63.13 17.12Q63.21 17.47 63.27 17.60L63.27 17.60ZM65.87 10.38L65.87 11.15L65.87 11.15Q66.76 10.26 67.85 10.26L67.85 10.26L67.85 10.26Q68.49 10.26 68.98 10.51L68.98 10.51L68.98 10.51Q69.47 10.77 69.71 11.28L69.71 11.28L69.71 11.28Q70.72 10.26 71.73 10.26L71.73 10.26L71.73 10.26Q72.60 10.26 73.23 10.71L73.23 10.71L73.23 10.71Q73.90 11.20 73.90 12.19L73.90 12.19L73.90 17.60L72.44 17.60L72.44 12.57L72.44 12.57Q72.44 12.09 72.08 11.79L72.08 11.79L72.08 11.79Q71.73 11.50 71.31 11.50L71.31 11.50L71.31 11.50Q70.89 11.50 70.49 11.74L70.49 11.74L70.49 11.74Q70.08 11.98 69.88 12.22L69.88 12.22L69.88 17.60L68.42 17.60L68.42 12.57L68.42 12.57Q68.42 12.08 68.12 11.79L68.12 11.79L68.12 11.79Q67.83 11.50 67.41 11.50L67.41 11.50L67.41 11.50Q67.00 11.50 66.53 11.75L66.53 11.75L66.53 11.75Q66.06 12.00 65.87 12.22L65.87 12.22L65.87 17.60L64.41 17.60L64.41 10.38L65.87 10.38ZM76.83 12.33L76.83 15.78L76.83 15.78Q77.51 16.48 78.31 16.48L78.31 16.48L78.31 16.48Q79.14 16.48 79.50 15.76L79.50 15.76L79.50 15.76Q79.82 15.13 79.82 13.88L79.82 13.88L79.82 13.88Q79.82 12.49 79.37 11.96L79.37 11.96L79.37 11.96Q78.99 11.50 78.24 11.50L78.24 11.50L78.24 11.50Q77.45 11.50 76.92 12.20L76.92 12.20L76.92 12.20Q76.84 12.33 76.83 12.33L76.83 12.33ZM76.83 10.38L76.83 10.92L76.83 10.92Q77.35 10.26 78.35 10.26L78.35 10.26L78.35 10.26Q80.07 10.26 80.85 11.85L80.85 11.85L80.85 11.85Q81.29 12.74 81.29 13.86L81.29 13.86L81.29 13.86Q81.29 16.46 80.00 17.28L80.00 17.28L80.00 17.28Q79.32 17.72 78.25 17.72L78.25 17.72L78.25 17.72Q77.73 17.72 77.34 17.51L77.34 17.51L77.34 17.51Q76.95 17.30 76.83 17.12L76.83 17.12L76.83 20.40L75.37 20.40L75.37 10.38L76.83 10.38ZM83.90 17.62L82.44 17.62L82.44 7.24L83.90 7.24L83.90 17.62ZM86.61 13.14L86.61 13.14L89.14 13.14L89.14 13.14Q89.14 12.61 88.96 12.22L88.96 12.22L88.96 12.22Q88.60 11.50 87.97 11.50L87.97 11.50L87.97 11.50Q87.60 11.50 87.31 11.67L87.31 11.67L87.31 11.67Q87.03 11.83 86.88 12.10L86.88 12.10L86.88 12.10Q86.61 12.60 86.61 13.14ZM85.47 16.20L85.47 16.20L85.47 16.20Q85.25 15.73 85.17 15.23L85.17 15.23L85.17 15.23Q85.08 14.74 85.08 13.98L85.08 13.98L85.08 13.98Q85.08 13.23 85.26 12.52L85.26 12.52L85.26 12.52Q85.44 11.81 85.72 11.39L85.72 11.39L85.72 11.39Q86.00 10.96 86.39 10.71L86.39 10.71L86.39 10.71Q87.07 10.26 87.99 10.26L87.99 10.26L87.99 10.26Q88.85 10.26 89.49 10.77L89.49 10.77L89.49 10.77Q90.69 11.74 90.64 14.38L90.64 14.38L86.54 14.38L86.54 14.38Q86.54 15.76 87.27 16.24L87.27 16.24L87.27 16.24Q87.65 16.48 88.06 16.48L88.06 16.48L88.06 16.48Q88.48 16.48 88.75 16.38L88.75 16.38L88.75 16.38Q89.02 16.28 89.19 16.15L89.19 16.15L89.19 16.15Q89.35 16.02 89.49 15.85L89.49 15.85L89.49 15.85Q89.67 15.61 89.74 15.44L89.74 15.44L90.67 16.04L90.67 16.04Q90.17 16.92 89.59 17.29L89.59 17.29L89.59 17.29Q88.96 17.72 88.19 17.72L88.19 17.72L88.19 17.72Q87.43 17.72 86.90 17.52L86.90 17.52L86.90 17.52Q86.36 17.32 86.02 16.99L86.02 16.99L86.02 16.99Q85.68 16.67 85.47 16.20ZM97.00 8.61L94.21 8.61L94.21 7.24L101.43 7.24L101.43 8.61L98.64 8.61L98.64 17.60L97.00 17.60L97.00 8.61ZM102.43 17.60L100.97 17.60L100.97 10.38L102.43 10.38L102.43 11.38L102.43 11.38Q102.46 11.34 102.55 11.20L102.55 11.20L102.72 10.95L102.72 10.95Q103.22 10.26 104.38 10.26L104.38 10.26L104.38 10.26Q104.51 10.26 104.63 10.28L104.63 10.28L104.63 11.50L104.63 11.50Q103.39 11.53 102.84 12.20L102.84 12.20L102.84 12.20Q102.59 12.50 102.43 12.97L102.43 12.97L102.43 17.60ZM106.52 15.74L106.52 15.74L106.52 15.74Q106.52 16.14 106.72 16.32L106.72 16.32L106.72 16.32Q106.92 16.50 107.21 16.50L107.21 16.50L107.21 16.50Q107.51 16.50 107.66 16.47L107.66 16.47L107.66 16.47Q107.80 16.43 107.95 16.37L107.95 16.37L108.20 16.24L108.20 16.24Q108.31 16.17 108.45 16.06L108.45 16.06L108.64 15.91L108.64 15.91Q108.70 15.86 108.82 15.75L108.82 15.75L108.94 15.63L108.94 13.95L108.94 13.95Q107.41 14.30 106.94 14.71L106.94 14.71L106.94 14.71Q106.52 15.08 106.52 15.74ZM110.61 17.60L109.15 17.60L109.15 17.60Q108.94 17.47 108.94 16.96L108.94 16.96L108.81 17.11L108.81 17.11Q108.23 17.74 107.13 17.74L107.13 17.74L107.13 17.74Q105.81 17.74 105.31 16.80L105.31 16.80L105.31 16.80Q105.06 16.34 105.06 15.73L105.06 15.73L105.06 15.73Q105.06 15.12 105.28 14.65L105.28 14.65L105.28 14.65Q105.49 14.17 105.98 13.81L105.98 13.81L105.98 13.81Q106.86 13.15 108.94 12.74L108.94 12.74L108.94 12.74Q108.94 12.25 108.91 12.14L108.91 12.14L108.91 12.14Q108.88 12.03 108.85 11.94L108.85 11.94L108.85 11.94Q108.81 11.84 108.75 11.79L108.75 11.79L108.75 11.79Q108.70 11.74 108.62 11.68L108.62 11.68L108.62 11.68Q108.53 11.61 108.42 11.59L108.42 11.59L108.42 11.59Q108.16 11.52 107.83 11.52L107.83 11.52L107.83 11.52Q107.51 11.52 107.23 11.62L107.23 11.62L107.23 11.62Q106.94 11.72 106.77 11.84L106.77 11.84L106.77 11.84Q106.61 11.96 106.47 12.13L106.47 12.13L106.47 12.13Q106.29 12.35 106.22 12.51L106.22 12.51L105.26 11.92L105.26 11.92Q105.56 11.30 105.78 11.09L105.78 11.09L105.78 11.09Q106.00 10.88 106.21 10.73L106.21 10.73L106.21 10.73Q106.42 10.58 106.66 10.49L106.66 10.49L106.66 10.49Q107.24 10.28 107.83 10.28L107.83 10.28L107.83 10.28Q108.42 10.28 108.78 10.35L108.78 10.35L108.78 10.35Q109.13 10.41 109.45 10.58L109.45 10.58L109.45 10.58Q109.76 10.75 109.97 11.03L109.97 11.03L109.97 11.03Q110.41 11.63 110.41 12.80L110.41 12.80L110.41 16.58L110.41 16.58Q110.41 16.77 110.48 17.12L110.48 17.12L110.48 17.12Q110.55 17.47 110.61 17.60L110.61 17.60ZM111.41 14.04L111.41 14.04L111.41 14.04Q111.41 11.89 112.34 10.99L112.34 10.99L112.34 10.99Q113.08 10.26 114.41 10.26L114.41 10.26L114.41 10.26Q115.74 10.26 116.49 11.38L116.49 11.38L116.49 11.38Q116.74 11.74 116.83 12.06L116.83 12.06L115.60 12.61L115.60 12.61Q115.54 12.04 115.14 11.72L115.14 11.72L115.14 11.72Q114.86 11.50 114.46 11.50L114.46 11.50L114.46 11.50Q112.87 11.50 112.87 13.98L112.87 13.98L112.87 13.98Q112.87 15.20 113.29 15.84L113.29 15.84L113.29 15.84Q113.70 16.48 114.50 16.48L114.50 16.48L114.50 16.48Q115.06 16.48 115.41 16.07L115.41 16.07L115.41 16.07Q115.71 15.72 115.85 15.31L115.85 15.31L116.97 15.80L116.97 15.80Q116.81 16.41 116.30 16.96L116.30 16.96L116.30 16.96Q115.58 17.72 114.46 17.72L114.46 17.72L114.46 17.72Q111.41 17.72 111.41 14.04ZM119.72 17.60L118.25 17.60L118.25 7.24L119.72 7.24L119.72 13.07L121.80 10.38L123.57 10.38L121.48 13.05L123.70 17.60L122.04 17.60L120.47 14.34L119.72 15.29L119.72 17.60ZM125.42 13.14L125.42 13.14L127.95 13.14L127.95 13.14Q127.95 12.61 127.76 12.22L127.76 12.22L127.76 12.22Q127.41 11.50 126.78 11.50L126.78 11.50L126.78 11.50Q126.40 11.50 126.12 11.67L126.12 11.67L126.12 11.67Q125.84 11.83 125.69 12.10L125.69 12.10L125.69 12.10Q125.42 12.60 125.42 13.14ZM124.27 16.20L124.27 16.20L124.27 16.20Q124.06 15.73 123.97 15.23L123.97 15.23L123.97 15.23Q123.89 14.74 123.89 13.98L123.89 13.98L123.89 13.98Q123.89 13.23 124.07 12.52L124.07 12.52L124.07 12.52Q124.24 11.81 124.52 11.39L124.52 11.39L124.52 11.39Q124.80 10.96 125.20 10.71L125.20 10.71L125.20 10.71Q125.88 10.26 126.79 10.26L126.79 10.26L126.79 10.26Q127.65 10.26 128.30 10.77L128.30 10.77L128.30 10.77Q129.50 11.74 129.45 14.38L129.45 14.38L125.35 14.38L125.35 14.38Q125.35 15.76 126.08 16.24L126.08 16.24L126.08 16.24Q126.46 16.48 126.87 16.48L126.87 16.48L126.87 16.48Q127.29 16.48 127.56 16.38L127.56 16.38L127.56 16.38Q127.83 16.28 128.00 16.15L128.00 16.15L128.00 16.15Q128.16 16.02 128.30 15.85L128.30 15.85L128.30 15.85Q128.48 15.61 128.55 15.44L128.55 15.44L129.48 16.04L129.48 16.04Q128.97 16.92 128.40 17.29L128.40 17.29L128.40 17.29Q127.76 17.72 127.00 17.72L127.00 17.72L127.00 17.72Q126.24 17.72 125.70 17.52L125.70 17.52L125.70 17.52Q125.17 17.32 124.83 16.99L124.83 16.99L124.83 16.99Q124.49 16.67 124.27 16.20ZM132.10 17.60L130.63 17.60L130.63 10.38L132.10 10.38L132.10 11.38L132.10 11.38Q132.13 11.34 132.22 11.20L132.22 11.20L132.38 10.95L132.38 10.95Q132.89 10.26 134.05 10.26L134.05 10.26L134.05 10.26Q134.18 10.26 134.30 10.28L134.30 10.28L134.30 11.50L134.30 11.50Q133.05 11.53 132.51 12.20L132.51 12.20L132.51 12.20Q132.26 12.50 132.10 12.97L132.10 12.97L132.10 17.60Z"></path></g><!----><g data-v-423bf9ae="" id="c43023bd-59b3-4a79-bc80-85b18058b2e7" transform="matrix(1.0714268197847316,0,0,1.0714268197847316,-22.4671930625657,-7.571405430476105)" stroke="none" fill="#F9B200"><path d="M78.54 18.83C73.35 14.68 67.55 9.92 67 9.2a1 1 0 0 0-.31-.29A3 3 0 0 0 64.51 8h-29a3 3 0 0 0-2.09.86.93.93 0 0 0-.35.33c-.54.68-6.37 5.47-11.58 9.64a1 1 0 0 0-.17 1.39l7.24 9.54a1 1 0 0 0 1.27.28l2.69-1.43V54.1a1 1 0 0 0 1 1h5.13a1 1 0 1 0 0-2h-4.16V11a1 1 0 0 1 1-1h6.11a8.46 8.46 0 0 0 16.8 0h6.12a1 1 0 0 1 1 1v22.71a1 1 0 0 0 2 0V28.6l2.69 1.4a1 1 0 0 0 1.27-.28l7.24-9.54a1 1 0 0 0-.18-1.35zm-46.05 7.52h-.07l-2.81 1.49-6.13-8.08c2.85-2.28 6.63-5.34 9-7.4v14zM50 15.46A6.47 6.47 0 0 1 43.62 10h12.76A6.47 6.47 0 0 1 50 15.46zm20.39 12.4l-2.81-1.49h-.07v-14c2.38 2.05 6.16 5.11 9 7.4zm3.69 10.21H44.7a1 1 0 0 0-1 1V91a1 1 0 0 0 1 1h10.94a1 1 0 0 0 1-.92l2.66-35.3h.88l2.66 35.29a1 1 0 0 0 1 .92h10.25a1 1 0 0 0 1-1V39.07a1 1 0 0 0-1-1zm-18.48 2h7.57v4.49h-7.56v-4.49zm-9.91 0h7.91v4.49h-7.9v-4.49zM73.09 90h-8.32L62.1 54.71a1 1 0 0 0-1-.92h-2.73a1 1 0 0 0-1 .92L54.71 90h-9V46.56h27.38V90zm0-45.44h-7.91v-4.49h7.91v4.49z"></path></g><!----></svg>